<svg width="14" height="14" viewBox="0 0 14 14" fill="none" xmlns="http://www.w3.org/2000/svg">
<mask id="path-1-inside-1_1_95" fill="white">
<path d="M10.5 4.08336H11.0833V4.66669C11.0833 4.8214 11.1448 4.96977 11.2542 5.07917C11.3636 5.18856 11.5119 5.25002 11.6666 5.25002C11.8214 5.25002 11.9697 5.18856 12.0791 5.07917C12.1885 4.96977 12.25 4.8214 12.25 4.66669V4.08336H12.8333C12.988 4.08336 13.1364 4.0219 13.2458 3.9125C13.3552 3.80311 13.4166 3.65473 13.4166 3.50002C13.4166 3.34531 13.3552 3.19694 13.2458 3.08754C13.1364 2.97815 12.988 2.91669 12.8333 2.91669H12.25V2.33336C12.25 2.17865 12.1885 2.03027 12.0791 1.92088C11.9697 1.81148 11.8214 1.75002 11.6666 1.75002C11.5119 1.75002 11.3636 1.81148 11.2542 1.92088C11.1448 2.03027 11.0833 2.17865 11.0833 2.33336V2.91669H10.5C10.3453 2.91669 10.1969 2.97815 10.0875 3.08754C9.9781 3.19694 9.91665 3.34531 9.91665 3.50002C9.91665 3.65473 9.9781 3.80311 10.0875 3.9125C10.1969 4.0219 10.3453 4.08336 10.5 4.08336ZM11.6666 9.33336C11.3046 9.33522 10.952 9.44935 10.6575 9.66002L9.22831 8.81419C9.29575 8.60488 9.33115 8.38658 9.33331 8.16669C9.33164 7.6507 9.15897 7.14981 8.84233 6.7424C8.52568 6.33498 8.08292 6.04402 7.58331 5.91502V4.56169C7.97252 4.42408 8.30055 4.15332 8.50943 3.79724C8.71831 3.44117 8.79459 3.02272 8.72478 2.61585C8.65497 2.20897 8.44357 1.83988 8.12795 1.57379C7.81232 1.30771 7.4128 1.16177 6.99998 1.16177C6.58716 1.16177 6.18764 1.30771 5.87201 1.57379C5.55639 1.83988 5.34499 2.20897 5.27518 2.61585C5.20537 3.02272 5.28165 3.44117 5.49053 3.79724C5.69941 4.15332 6.02744 4.42408 6.41665 4.56169V5.91502C5.91704 6.04402 5.47428 6.33498 5.15763 6.7424C4.84099 7.14981 4.66832 7.6507 4.66665 8.16669C4.66881 8.38658 4.70421 8.60488 4.77165 8.81419L3.34248 9.66002C3.04799 9.44935 2.6954 9.33522 2.33331 9.33336C1.9872 9.33336 1.64885 9.43599 1.36107 9.62828C1.07328 9.82058 0.848978 10.0939 0.716525 10.4137C0.584071 10.7334 0.549415 11.0853 0.61694 11.4248C0.684464 11.7642 0.851135 12.0761 1.09588 12.3208C1.34062 12.5655 1.65244 12.7322 1.99191 12.7997C2.33137 12.8673 2.68324 12.8326 3.00301 12.7001C3.32278 12.5677 3.59609 12.3434 3.78839 12.0556C3.98068 11.7678 4.08331 11.4295 4.08331 11.0834C4.08116 10.9254 4.05761 10.7684 4.01331 10.6167L5.35498 9.81752C5.79216 10.2521 6.38355 10.496 6.99998 10.496C7.61641 10.496 8.2078 10.2521 8.64498 9.81752L9.98665 10.6167C9.88891 10.97 9.90456 11.345 10.0314 11.6889C10.1582 12.0328 10.3898 12.3282 10.6936 12.5334C10.9973 12.7386 11.3578 12.8433 11.7241 12.8326C12.0905 12.822 12.4443 12.6965 12.7356 12.474C13.0269 12.2515 13.2409 11.9432 13.3476 11.5925C13.4542 11.2418 13.4481 10.8665 13.33 10.5195C13.2118 10.1725 12.9878 9.87134 12.6893 9.65852C12.3909 9.4457 12.0332 9.33197 11.6666 9.33336ZM2.33331 11.6667C2.21794 11.6667 2.10516 11.6325 2.00923 11.5684C1.9133 11.5043 1.83854 11.4132 1.79438 11.3066C1.75023 11.2 1.73868 11.0827 1.76119 10.9696C1.7837 10.8564 1.83925 10.7525 1.92083 10.6709C2.00242 10.5893 2.10636 10.5337 2.21951 10.5112C2.33267 10.4887 2.44996 10.5003 2.55655 10.5444C2.66314 10.5886 2.75424 10.6633 2.81834 10.7593C2.88244 10.8552 2.91665 10.968 2.91665 11.0834C2.91665 11.2381 2.85519 11.3864 2.74579 11.4958C2.6364 11.6052 2.48802 11.6667 2.33331 11.6667ZM6.99998 2.33336C7.11535 2.33336 7.22813 2.36757 7.32406 2.43167C7.41999 2.49576 7.49476 2.58687 7.53891 2.69346C7.58306 2.80005 7.59461 2.91734 7.5721 3.03049C7.5496 3.14365 7.49404 3.24759 7.41246 3.32917C7.33088 3.41075 7.22694 3.46631 7.11378 3.48881C7.00063 3.51132 6.88334 3.49977 6.77675 3.45562C6.67016 3.41147 6.57905 3.3367 6.51496 3.24077C6.45086 3.14484 6.41665 3.03206 6.41665 2.91669C6.41665 2.76198 6.47811 2.61361 6.5875 2.50421C6.6969 2.39481 6.84527 2.33336 6.99998 2.33336ZM6.99998 9.33336C6.76924 9.33336 6.54367 9.26493 6.35181 9.13674C6.15996 9.00854 6.01042 8.82633 5.92212 8.61315C5.83382 8.39997 5.81071 8.1654 5.85573 7.93908C5.90075 7.71277 6.01186 7.50489 6.17502 7.34173C6.33818 7.17857 6.54606 7.06746 6.77237 7.02244C6.99869 6.97742 7.23326 7.00053 7.44644 7.08883C7.65962 7.17713 7.84183 7.32667 7.97003 7.51853C8.09822 7.71038 8.16665 7.93595 8.16665 8.16669C8.16665 8.47611 8.04373 8.77285 7.82494 8.99165C7.60615 9.21044 7.3094 9.33336 6.99998 9.33336ZM11.6666 11.6667C11.5513 11.6667 11.4385 11.6325 11.3426 11.5684C11.2466 11.5043 11.1719 11.4132 11.1277 11.3066C11.0836 11.2 11.072 11.0827 11.0945 10.9696C11.117 10.8564 11.1726 10.7525 11.2542 10.6709C11.3357 10.5893 11.4397 10.5337 11.5528 10.5112C11.666 10.4887 11.7833 10.5003 11.8899 10.5444C11.9965 10.5886 12.0876 10.6633 12.1517 10.7593C12.2158 10.8552 12.25 10.968 12.25 11.0834C12.25 11.2381 12.1885 11.3864 12.0791 11.4958C11.9697 11.6052 11.8214 11.6667 11.6666 11.6667Z"/>
</mask>
<path d="M10.5 4.08336H11.0833V4.66669C11.0833 4.8214 11.1448 4.96977 11.2542 5.07917C11.3636 5.18856 11.5119 5.25002 11.6666 5.25002C11.8214 5.25002 11.9697 5.18856 12.0791 5.07917C12.1885 4.96977 12.25 4.8214 12.25 4.66669V4.08336H12.8333C12.988 4.08336 13.1364 4.0219 13.2458 3.9125C13.3552 3.80311 13.4166 3.65473 13.4166 3.50002C13.4166 3.34531 13.3552 3.19694 13.2458 3.08754C13.1364 2.97815 12.988 2.91669 12.8333 2.91669H12.25V2.33336C12.25 2.17865 12.1885 2.03027 12.0791 1.92088C11.9697 1.81148 11.8214 1.75002 11.6666 1.75002C11.5119 1.75002 11.3636 1.81148 11.2542 1.92088C11.1448 2.03027 11.0833 2.17865 11.0833 2.33336V2.91669H10.5C10.3453 2.91669 10.1969 2.97815 10.0875 3.08754C9.9781 3.19694 9.91665 3.34531 9.91665 3.50002C9.91665 3.65473 9.9781 3.80311 10.0875 3.9125C10.1969 4.0219 10.3453 4.08336 10.5 4.08336ZM11.6666 9.33336C11.3046 9.33522 10.952 9.44935 10.6575 9.66002L9.22831 8.81419C9.29575 8.60488 9.33115 8.38658 9.33331 8.16669C9.33164 7.6507 9.15897 7.14981 8.84233 6.7424C8.52568 6.33498 8.08292 6.04402 7.58331 5.91502V4.56169C7.97252 4.42408 8.30055 4.15332 8.50943 3.79724C8.71831 3.44117 8.79459 3.02272 8.72478 2.61585C8.65497 2.20897 8.44357 1.83988 8.12795 1.57379C7.81232 1.30771 7.4128 1.16177 6.99998 1.16177C6.58716 1.16177 6.18764 1.30771 5.87201 1.57379C5.55639 1.83988 5.34499 2.20897 5.27518 2.61585C5.20537 3.02272 5.28165 3.44117 5.49053 3.79724C5.69941 4.15332 6.02744 4.42408 6.41665 4.56169V5.91502C5.91704 6.04402 5.47428 6.33498 5.15763 6.7424C4.84099 7.14981 4.66832 7.6507 4.66665 8.16669C4.66881 8.38658 4.70421 8.60488 4.77165 8.81419L3.34248 9.66002C3.04799 9.44935 2.6954 9.33522 2.33331 9.33336C1.9872 9.33336 1.64885 9.43599 1.36107 9.62828C1.07328 9.82058 0.848978 10.0939 0.716525 10.4137C0.584071 10.7334 0.549415 11.0853 0.61694 11.4248C0.684464 11.7642 0.851135 12.0761 1.09588 12.3208C1.34062 12.5655 1.65244 12.7322 1.99191 12.7997C2.33137 12.8673 2.68324 12.8326 3.00301 12.7001C3.32278 12.5677 3.59609 12.3434 3.78839 12.0556C3.98068 11.7678 4.08331 11.4295 4.08331 11.0834C4.08116 10.9254 4.05761 10.7684 4.01331 10.6167L5.35498 9.81752C5.79216 10.2521 6.38355 10.496 6.99998 10.496C7.61641 10.496 8.2078 10.2521 8.64498 9.81752L9.98665 10.6167C9.88891 10.97 9.90456 11.345 10.0314 11.6889C10.1582 12.0328 10.3898 12.3282 10.6936 12.5334C10.9973 12.7386 11.3578 12.8433 11.7241 12.8326C12.0905 12.822 12.4443 12.6965 12.7356 12.474C13.0269 12.2515 13.2409 11.9432 13.3476 11.5925C13.4542 11.2418 13.4481 10.8665 13.33 10.5195C13.2118 10.1725 12.9878 9.87134 12.6893 9.65852C12.3909 9.4457 12.0332 9.33197 11.6666 9.33336ZM2.33331 11.6667C2.21794 11.6667 2.10516 11.6325 2.00923 11.5684C1.9133 11.5043 1.83854 11.4132 1.79438 11.3066C1.75023 11.2 1.73868 11.0827 1.76119 10.9696C1.7837 10.8564 1.83925 10.7525 1.92083 10.6709C2.00242 10.5893 2.10636 10.5337 2.21951 10.5112C2.33267 10.4887 2.44996 10.5003 2.55655 10.5444C2.66314 10.5886 2.75424 10.6633 2.81834 10.7593C2.88244 10.8552 2.91665 10.968 2.91665 11.0834C2.91665 11.2381 2.85519 11.3864 2.74579 11.4958C2.6364 11.6052 2.48802 11.6667 2.33331 11.6667ZM6.99998 2.33336C7.11535 2.33336 7.22813 2.36757 7.32406 2.43167C7.41999 2.49576 7.49476 2.58687 7.53891 2.69346C7.58306 2.80005 7.59461 2.91734 7.5721 3.03049C7.5496 3.14365 7.49404 3.24759 7.41246 3.32917C7.33088 3.41075 7.22694 3.46631 7.11378 3.48881C7.00063 3.51132 6.88334 3.49977 6.77675 3.45562C6.67016 3.41147 6.57905 3.3367 6.51496 3.24077C6.45086 3.14484 6.41665 3.03206 6.41665 2.91669C6.41665 2.76198 6.47811 2.61361 6.5875 2.50421C6.6969 2.39481 6.84527 2.33336 6.99998 2.33336ZM6.99998 9.33336C6.76924 9.33336 6.54367 9.26493 6.35181 9.13674C6.15996 9.00854 6.01042 8.82633 5.92212 8.61315C5.83382 8.39997 5.81071 8.1654 5.85573 7.93908C5.90075 7.71277 6.01186 7.50489 6.17502 7.34173C6.33818 7.17857 6.54606 7.06746 6.77237 7.02244C6.99869 6.97742 7.23326 7.00053 7.44644 7.08883C7.65962 7.17713 7.84183 7.32667 7.97003 7.51853C8.09822 7.71038 8.16665 7.93595 8.16665 8.16669C8.16665 8.47611 8.04373 8.77285 7.82494 8.99165C7.60615 9.21044 7.3094 9.33336 6.99998 9.33336ZM11.6666 11.6667C11.5513 11.6667 11.4385 11.6325 11.3426 11.5684C11.2466 11.5043 11.1719 11.4132 11.1277 11.3066C11.0836 11.2 11.072 11.0827 11.0945 10.9696C11.117 10.8564 11.1726 10.7525 11.2542 10.6709C11.3357 10.5893 11.4397 10.5337 11.5528 10.5112C11.666 10.4887 11.7833 10.5003 11.8899 10.5444C11.9965 10.5886 12.0876 10.6633 12.1517 10.7593C12.2158 10.8552 12.25 10.968 12.25 11.0834C12.25 11.2381 12.1885 11.3864 12.0791 11.4958C11.9697 11.6052 11.8214 11.6667 11.6666 11.6667Z" fill="#2B2B2B" stroke="#2B2B2B" stroke-width="2.45" mask="url(#path-1-inside-1_1_95)"/>
</svg>
