<svg width="14" height="14" viewBox="0 0 14 14" fill="none" xmlns="http://www.w3.org/2000/svg">
<path d="M6.99908 12.211L6.99897 12.2792C6.99931 12.2792 6.99965 12.2792 6.99999 12.2792C7.00033 12.2792 7.00067 12.2792 7.00101 12.2792L7.00089 12.211M6.99908 12.211C6.99938 12.211 6.99969 12.211 6.99999 12.211C7.00029 12.211 7.00059 12.211 7.00089 12.211M6.99908 12.211L6.99999 11.6667L7.00089 12.211M6.99908 12.211C6.28997 12.2108 5.58832 12.0663 4.93692 11.7861C4.50444 11.6 4.10014 11.3568 3.7345 11.0637C3.55506 10.9198 3.38493 10.764 3.22535 10.597L3.64135 10.2832C3.67437 10.2583 3.70699 10.2329 3.7392 10.207C4.20254 9.83505 4.58019 9.36677 4.84561 8.83408C4.85478 8.81569 4.8638 8.79724 4.87268 8.77873C5.13887 8.22382 5.27723 7.61599 5.27723 7.00002C5.27723 6.38405 5.13887 5.77622 4.87268 5.22131C4.8638 5.2028 4.85477 5.18435 4.84561 5.16596C4.58019 4.63327 4.20254 4.16499 3.7392 3.79303C3.70699 3.76718 3.67437 3.74179 3.64135 3.71687L3.22631 3.4038C3.38496 3.23683 3.5548 3.08021 3.73486 2.93509C3.86818 2.82764 4.0071 2.72649 4.15122 2.63213C4.99805 2.07767 5.9878 1.78134 6.99999 1.77919M7.00089 12.211C7.71 12.2108 8.41166 12.0663 9.06306 11.7861C9.49553 11.6 9.89983 11.3568 10.2655 11.0637C10.4449 10.9198 10.615 10.764 10.7746 10.597M6.99999 1.77919C8.01218 1.78134 9.00192 2.07767 9.84876 2.63213L9.8812 2.58258M6.99999 1.77919C7.00038 1.77919 7.00076 1.77919 7.00115 1.77919L7.00104 1.72133M6.99999 1.77919L7.00104 1.72133M9.8812 2.58258L9.84876 2.63213C9.99288 2.72649 10.1318 2.82764 10.2651 2.93509C10.4452 3.08021 10.615 3.23683 10.7737 3.4038M9.8812 2.58258C10.0259 2.67757 10.1663 2.78 10.3019 2.88966L10.8918 3.36685L10.8721 3.38267M9.8812 2.58258C9.02879 2.02295 8.02823 1.72154 7.00104 1.72133M10.7737 3.4038L10.3586 3.71687C10.3256 3.74179 10.293 3.76718 10.2608 3.79303C9.79743 4.16499 9.41978 4.63327 9.15437 5.16595C9.1452 5.18435 9.13618 5.2028 9.1273 5.22131C8.86111 5.77622 8.72274 6.38405 8.72274 7.00002C8.72274 7.61599 8.86111 8.22382 9.1273 8.77873C9.13618 8.79724 9.1452 8.81569 9.15436 8.83408C9.41978 9.36677 9.79743 9.83505 10.2608 10.207C10.293 10.2329 10.3256 10.2583 10.3586 10.2832L10.7746 10.597M10.7737 3.4038C10.7841 3.41478 10.7945 3.42581 10.8048 3.43689L10.8721 3.38267M10.7737 3.4038L10.8465 3.34886L10.8721 3.38267M10.7746 10.597C10.7781 10.5933 10.7816 10.5897 10.7851 10.586L10.8558 10.6605L10.8406 10.6467L10.7746 10.597ZM9.91665 10.6342L9.53241 11.1112C9.48698 11.0746 9.44219 11.0373 9.39807 10.9992C9.57825 10.8901 9.75158 10.7683 9.91665 10.6342ZM9.91665 10.6342L9.5305 10.1587C9.50745 10.1775 9.48421 10.1959 9.46079 10.2141C9.6029 10.3637 9.75513 10.5041 9.91665 10.6342ZM9.91665 3.36585L9.53143 3.84205C9.50803 3.82312 9.48444 3.80446 9.46066 3.78609C9.6028 3.63645 9.75508 3.49601 9.91665 3.36585ZM9.91665 3.36585L9.53241 2.88887C9.4867 2.92569 9.44164 2.96324 9.39726 3.0015C9.57767 3.11045 9.75126 3.23206 9.91665 3.36585ZM4.08332 3.36585L4.46756 2.88887C4.51327 2.92569 4.55833 2.96324 4.60271 3.0015C4.42231 3.11044 4.24872 3.23206 4.08332 3.36585ZM4.08332 3.36585L4.46854 3.84205C4.49195 3.82312 4.51554 3.80446 4.53932 3.78609C4.39717 3.63645 4.24489 3.49601 4.08332 3.36585ZM4.08332 10.6342L4.46947 10.1587C4.49252 10.1775 4.51576 10.1959 4.53918 10.2141C4.39708 10.3637 4.24484 10.5041 4.08332 10.6342ZM4.08332 10.6342L4.46756 11.1112C4.513 11.0746 4.55778 11.0373 4.6019 10.9992C4.42172 10.8901 4.2484 10.7683 4.08332 10.6342ZM10.8721 3.38267L6.99999 1.16669L7.00104 1.72133M10.8542 10.641L10.8721 10.6174L10.8542 10.641Z" stroke="white" stroke-width="1.225"/>
</svg>
