<svg width="14" height="14" viewBox="0 0 14 14" fill="none" xmlns="http://www.w3.org/2000/svg">
<g clip-path="url(#clip0_1_84)">
<path d="M6.99996 12.8334C10.2216 12.8334 12.8333 10.2217 12.8333 7.00002C12.8333 3.77836 10.2216 1.16669 6.99996 1.16669C3.7783 1.16669 1.16663 3.77836 1.16663 7.00002C1.16663 10.2217 3.7783 12.8334 6.99996 12.8334Z" stroke="#2B2B2B" stroke-width="1.225" stroke-linecap="round" stroke-linejoin="round"/>
<path d="M1.16663 7H12.8333" stroke="#2B2B2B" stroke-width="1.23" stroke-linecap="round" stroke-linejoin="round"/>
<path d="M6.99996 1.16669C8.45904 2.76406 9.28823 4.83704 9.33329 7.00002C9.28823 9.163 8.45904 11.236 6.99996 12.8334C5.54088 11.236 4.71169 9.163 4.66663 7.00002C4.71169 4.83704 5.54088 2.76406 6.99996 1.16669V1.16669Z" stroke="#2B2B2B" stroke-width="1.23" stroke-linecap="round" stroke-linejoin="round"/>
</g>
<defs>
<clipPath id="clip0_1_84">
<rect width="14" height="14" fill="white"/>
</clipPath>
</defs>
</svg>
