<svg width="14" height="14" viewBox="0 0 14 14" fill="none" xmlns="http://www.w3.org/2000/svg">
<g clip-path="url(#clip0_1_346)">
<path d="M7.00002 12.8334C10.2217 12.8334 12.8334 10.2217 12.8334 7.00002C12.8334 3.77836 10.2217 1.16669 7.00002 1.16669C3.77836 1.16669 1.16669 3.77836 1.16669 7.00002C1.16669 10.2217 3.77836 12.8334 7.00002 12.8334Z" stroke="white" stroke-width="1.225" stroke-linecap="round" stroke-linejoin="round"/>
<path d="M1.16669 7H12.8334" stroke="white" stroke-width="1.23" stroke-linecap="round" stroke-linejoin="round"/>
<path d="M7.00002 1.16669C8.4591 2.76406 9.28829 4.83704 9.33335 7.00002C9.28829 9.163 8.4591 11.236 7.00002 12.8334C5.54094 11.236 4.71175 9.163 4.66669 7.00002C4.71175 4.83704 5.54094 2.76406 7.00002 1.16669V1.16669Z" stroke="white" stroke-width="1.23" stroke-linecap="round" stroke-linejoin="round"/>
</g>
<defs>
<clipPath id="clip0_1_346">
<rect width="14" height="14" fill="white"/>
</clipPath>
</defs>
</svg>
