<svg width="12" height="15" viewBox="0 0 12 15" fill="none" xmlns="http://www.w3.org/2000/svg">
<path d="M9.72074 6.99907L9.48319 7.56625C9.32169 7.95184 9.04923 8.2807 8.70061 8.51155C8.35231 8.74219 7.94349 8.86477 7.52571 8.86411M9.72074 6.99907L7.52467 8.86411C7.52502 8.86411 7.52537 8.86411 7.52571 8.86411M9.72074 6.99907L9.15263 6.76376C8.80111 6.61815 8.51166 6.35598 8.33304 6.02242C8.15444 5.68891 8.09747 5.30433 8.17159 4.93396C8.24571 4.56358 8.44648 4.2297 8.74035 3.98942C9.03279 3.75032 9.39937 3.6187 9.77832 3.61712C10.1641 3.62554 10.5344 3.76852 10.8247 4.02072C11.1163 4.27413 11.3085 4.62148 11.3679 5.00139C11.4274 5.38128 11.3504 5.77003 11.1503 6.09932C10.9501 6.42867 10.6393 6.67769 10.2722 6.80193L9.9431 6.91331L9.86985 7.25298C9.75492 7.78592 9.45994 8.264 9.0335 8.60726C8.60704 8.95054 8.07496 9.13811 7.52594 9.13825C7.5259 9.13825 7.52586 9.13825 7.52582 9.13825L4.51557 9.13825L4.51379 9.13825C4.09745 9.13946 3.69053 9.26302 3.34402 9.49373C2.99748 9.72446 2.72665 10.0522 2.56585 10.4361L2.32767 11.0048L2.89787 11.2392C3.25323 11.3853 3.5455 11.6504 3.72451 11.988C3.90351 12.3254 3.95821 12.7144 3.8794 13.0876C3.80057 13.4608 3.59303 13.7953 3.29209 14.0329C2.9911 14.2705 2.61577 14.3959 2.23112 14.3871C1.84647 14.3782 1.47742 14.2356 1.18785 13.9844C0.898344 13.7333 0.706588 13.3897 0.645194 13.0133C0.583803 12.6369 0.65651 12.2508 0.851027 11.9219C1.04558 11.5929 1.34991 11.3415 1.71173 11.2119L2.11769 11.0665V10.6352V4.36882V3.93514L1.70863 3.7911C1.34229 3.6621 1.03412 3.40848 0.838113 3.07568C0.642138 2.74295 0.570706 2.35222 0.636129 1.97243C0.701557 1.59262 0.899771 1.24757 1.19639 0.998513C1.49306 0.749413 1.86899 0.6125 2.25779 0.6125C2.64658 0.6125 3.02252 0.749413 3.31919 0.998513C3.6158 1.24757 3.81401 1.59262 3.87944 1.97243C3.94487 2.35222 3.87343 2.74295 3.67746 3.07568C3.48145 3.40848 3.17328 3.6621 2.80694 3.7911L2.39788 3.93514V4.36882V8.67137V9.75269L3.32531 9.1967C3.685 8.98107 4.09668 8.86609 4.51684 8.86411M9.72074 6.99907L4.51684 8.86411M7.52571 8.86411H4.51684M7.52571 8.86411H4.51684M1.29339 11.785L1.71165 12.205L1.29339 11.785C1.1023 11.9754 0.971876 12.2182 0.919014 12.4828L1.51606 12.6021L0.919014 12.4828C0.866149 12.7476 0.893304 13.0219 0.996938 13.2711C1.10056 13.5203 1.27588 13.7328 1.50033 13.8822C1.72475 14.0315 1.98835 14.1111 2.25779 14.1111C2.61904 14.1111 2.96599 13.9682 3.22218 13.713L2.78995 13.2791L3.22218 13.713C3.47846 13.4578 3.62288 13.1111 3.62288 12.749C3.62288 12.4791 3.5425 12.2154 3.39219 11.9914C3.24189 11.7673 3.02854 11.5931 2.77938 11.4903C2.53025 11.3875 2.25625 11.3607 1.99193 11.413C1.7276 11.4654 1.48446 11.5947 1.29339 11.785ZM3.01524 1.12188C2.79082 0.972527 2.52723 0.89296 2.25779 0.89296C1.89653 0.89296 1.54958 1.03587 1.29339 1.29103C1.03712 1.54628 0.892692 1.89299 0.892692 2.25503C0.892692 2.52497 0.973074 2.78865 1.12339 3.01271C1.27368 3.23673 1.48703 3.41096 1.73619 3.51375C1.98532 3.61654 2.25932 3.64339 2.52364 3.59102C2.78797 3.53866 3.03111 3.40934 3.22218 3.21903C3.41328 3.0287 3.54369 2.78591 3.59656 2.52122C3.64942 2.25652 3.62227 1.98217 3.51863 1.73298C3.41501 1.48382 3.2397 1.27125 3.01524 1.12188ZM9.02626 6.38647C9.25069 6.53583 9.51428 6.61539 9.78372 6.61539C10.145 6.61539 10.4919 6.47248 10.7481 6.21732C11.0044 5.96207 11.1488 5.61536 11.1488 5.25332C11.1488 4.98338 11.0684 4.7197 10.9181 4.49565C10.7678 4.27162 10.5545 4.09739 10.3053 3.9946C10.0562 3.89182 9.78218 3.86496 9.51787 3.91733C9.25354 3.9697 9.0104 4.09902 8.81933 4.28932C8.62823 4.47965 8.49781 4.72245 8.44495 4.98713C8.39209 5.25183 8.41924 5.52618 8.52287 5.77537C8.6265 6.02453 8.80181 6.2371 9.02626 6.38647Z" fill="white" stroke="white" stroke-width="1.225"/>
</svg>
