<svg width="182" height="24" viewBox="0 0 182 24" fill="none" xmlns="http://www.w3.org/2000/svg">
<path d="M12 8C13.6569 8 15 6.65685 15 5C15 3.34315 13.6569 2 12 2C10.3431 2 9 3.34315 9 5C9 6.65685 10.3431 8 12 8Z" stroke="white" stroke-width="2" stroke-linecap="round" stroke-linejoin="round"/>
<path d="M12 22V8" stroke="white" stroke-width="2" stroke-linecap="round" stroke-linejoin="round"/>
<path d="M5 12H2C2 14.6522 3.05357 17.1957 4.92893 19.0711C6.8043 20.9464 9.34784 22 12 22C14.6522 22 17.1957 20.9464 19.0711 19.0711C20.9464 17.1957 22 14.6522 22 12H19" stroke="white" stroke-width="2" stroke-linecap="round" stroke-linejoin="round"/>
<path d="M34 8.5V15.5" stroke="white" stroke-width="2" stroke-linecap="round" stroke-linejoin="round"/>
<path d="M30.5 12H37.5" stroke="white" stroke-width="2" stroke-linecap="round" stroke-linejoin="round"/>
<path d="M59 12L50.5 20.5C49.67 21.33 48.33 21.33 47.5 20.5C47.3028 20.3031 47.1464 20.0693 47.0397 19.8119C46.933 19.5545 46.8781 19.2786 46.8781 19C46.8781 18.7214 46.933 18.4455 47.0397 18.1881C47.1464 17.9307 47.3028 17.6969 47.5 17.5L56 9" stroke="white" stroke-width="2" stroke-linecap="round" stroke-linejoin="round"/>
<path d="M61.64 15L66 10.64" stroke="white" stroke-width="2" stroke-linecap="round" stroke-linejoin="round"/>
<path d="M64.91 11.7L63.66 10.45C63.06 9.84999 62.73 9.04999 62.73 8.19999V7.33999L60.01 4.59999C59.4936 4.08061 58.8798 3.66835 58.2036 3.38691C57.5275 3.10547 56.8024 2.96039 56.07 2.95999H53L53.92 3.77999C54.5735 4.35938 55.0967 5.07069 55.4552 5.86704C55.8137 6.66338 55.9994 7.52666 56 8.39999V9.95999L58 11.96H60.47L62.73 13.87" stroke="white" stroke-width="2" stroke-linecap="round" stroke-linejoin="round"/>
<path d="M81.9787 17.5H80.348L84.0121 7.31818H85.7869L89.451 17.5H87.8203L84.9418 9.16761H84.8622L81.9787 17.5ZM82.2521 13.5128H87.5419V14.8054H82.2521V13.5128ZM99.8394 7.31818V17.5H98.4274L93.252 10.0327H93.1576V17.5H91.6213V7.31818H93.0432L98.2236 14.7955H98.3181V7.31818H99.8394ZM111.237 10.6293H109.686C109.626 10.2978 109.515 10.0062 109.353 9.75426C109.19 9.50237 108.992 9.28859 108.756 9.11293C108.521 8.93726 108.257 8.80469 107.966 8.7152C107.677 8.62571 107.371 8.58097 107.046 8.58097C106.459 8.58097 105.934 8.72846 105.47 9.02344C105.009 9.31842 104.645 9.75095 104.376 10.321C104.111 10.8911 103.978 11.5871 103.978 12.4091C103.978 13.2377 104.111 13.937 104.376 14.5071C104.645 15.0772 105.011 15.508 105.475 15.7997C105.939 16.0914 106.461 16.2372 107.041 16.2372C107.362 16.2372 107.667 16.1941 107.956 16.108C108.247 16.0185 108.511 15.8875 108.746 15.7152C108.982 15.5429 109.18 15.3324 109.343 15.0838C109.509 14.8319 109.623 14.5436 109.686 14.2188L111.237 14.2237C111.154 14.7242 110.993 15.1849 110.755 15.6058C110.519 16.0234 110.216 16.3847 109.845 16.6896C109.477 16.9912 109.056 17.2249 108.582 17.3906C108.108 17.5563 107.591 17.6392 107.031 17.6392C106.149 17.6392 105.364 17.4304 104.675 17.0128C103.985 16.5919 103.442 15.9903 103.044 15.2081C102.649 14.4259 102.452 13.4929 102.452 12.4091C102.452 11.322 102.651 10.389 103.049 9.61008C103.447 8.82789 103.99 8.22798 104.679 7.81037C105.369 7.38944 106.153 7.17898 107.031 7.17898C107.571 7.17898 108.075 7.25687 108.542 7.41264C109.013 7.5651 109.436 7.79048 109.81 8.08878C110.185 8.38376 110.495 8.74503 110.74 9.17258C110.985 9.59683 111.151 10.0824 111.237 10.6293ZM113.775 17.5V7.31818H115.311V11.7429H120.387V7.31818H121.929V17.5H120.387V13.0604H115.311V17.5H113.775ZM133.71 12.4091C133.71 13.4962 133.511 14.4309 133.114 15.2131C132.716 15.992 132.171 16.5919 131.478 17.0128C130.789 17.4304 130.005 17.6392 129.127 17.6392C128.245 17.6392 127.458 17.4304 126.765 17.0128C126.076 16.5919 125.532 15.9903 125.134 15.2081C124.737 14.4259 124.538 13.4929 124.538 12.4091C124.538 11.322 124.737 10.389 125.134 9.61008C125.532 8.82789 126.076 8.22798 126.765 7.81037C127.458 7.38944 128.245 7.17898 129.127 7.17898C130.005 7.17898 130.789 7.38944 131.478 7.81037C132.171 8.22798 132.716 8.82789 133.114 9.61008C133.511 10.389 133.71 11.322 133.71 12.4091ZM132.189 12.4091C132.189 11.5805 132.055 10.8828 131.786 10.3161C131.521 9.74598 131.157 9.3151 130.693 9.02344C130.232 8.72846 129.71 8.58097 129.127 8.58097C128.54 8.58097 128.016 8.72846 127.556 9.02344C127.095 9.3151 126.73 9.74598 126.462 10.3161C126.197 10.8828 126.064 11.5805 126.064 12.4091C126.064 13.2377 126.197 13.937 126.462 14.5071C126.73 15.0739 127.095 15.5047 127.556 15.7997C128.016 16.0914 128.54 16.2372 129.127 16.2372C129.71 16.2372 130.232 16.0914 130.693 15.7997C131.157 15.5047 131.521 15.0739 131.786 14.5071C132.055 13.937 132.189 13.2377 132.189 12.4091ZM136.326 17.5V7.31818H139.955C140.744 7.31818 141.398 7.45407 141.919 7.72585C142.442 7.99763 142.833 8.37382 143.092 8.8544C143.35 9.33168 143.48 9.88352 143.48 10.5099C143.48 11.133 143.349 11.6816 143.087 12.1555C142.828 12.6262 142.437 12.9924 141.914 13.2543C141.393 13.5161 140.739 13.647 139.95 13.647H137.201V12.3246H139.811C140.308 12.3246 140.712 12.2533 141.024 12.1108C141.339 11.9683 141.569 11.7611 141.715 11.4893C141.861 11.2176 141.934 10.8911 141.934 10.5099C141.934 10.1255 141.859 9.79238 141.71 9.51065C141.564 9.22893 141.334 9.01349 141.019 8.86435C140.707 8.71188 140.298 8.63565 139.791 8.63565H137.862V17.5H136.326ZM141.352 12.9062L143.868 17.5H142.118L139.652 12.9062H141.352Z" fill="white"/>
<rect x="151" y="5" width="31" height="16" rx="8" fill="#252525"/>
<path d="M156.639 15.5V9.68182H158.77C159.183 9.68182 159.525 9.75 159.795 9.88636C160.066 10.0208 160.269 10.2036 160.403 10.4347C160.538 10.6638 160.605 10.9223 160.605 11.2102C160.605 11.4527 160.561 11.6572 160.472 11.8239C160.383 11.9886 160.263 12.1212 160.114 12.2216C159.966 12.3201 159.803 12.392 159.625 12.4375V12.4943C159.818 12.5038 160.007 12.5663 160.19 12.6818C160.376 12.7955 160.529 12.9574 160.651 13.1676C160.772 13.3778 160.832 13.6335 160.832 13.9347C160.832 14.232 160.762 14.4991 160.622 14.7358C160.484 14.9706 160.27 15.1572 159.98 15.2955C159.69 15.4318 159.32 15.5 158.869 15.5H156.639ZM157.517 14.7472H158.784C159.205 14.7472 159.506 14.6657 159.688 14.5028C159.869 14.34 159.96 14.1364 159.96 13.892C159.96 13.7083 159.914 13.5398 159.821 13.3864C159.728 13.233 159.596 13.1108 159.423 13.0199C159.253 12.929 159.05 12.8835 158.815 12.8835H157.517V14.7472ZM157.517 12.1989H158.693C158.89 12.1989 159.067 12.161 159.224 12.0852C159.384 12.0095 159.509 11.9034 159.602 11.767C159.697 11.6288 159.744 11.4659 159.744 11.2784C159.744 11.0379 159.66 10.8362 159.491 10.6733C159.323 10.5104 159.064 10.429 158.716 10.429H157.517V12.1989ZM162.274 15.5V9.68182H165.921V10.4375H163.151V12.2102H165.731V12.9631H163.151V14.7443H165.955V15.5H162.274ZM167.207 10.4375V9.68182H171.71V10.4375H169.894V15.5H169.019V10.4375H167.207ZM172.909 15.5H171.977L174.071 9.68182H175.085L177.179 15.5H176.247L174.602 10.7386H174.557L172.909 15.5ZM173.065 13.2216H176.088V13.9602H173.065V13.2216Z" fill="white"/>
</svg>
