<svg width="14" height="14" viewBox="0 0 14 14" fill="none" xmlns="http://www.w3.org/2000/svg">
<g clip-path="url(#clip0_1_104)">
<path d="M3.51618 4.69092C3.51459 4.69199 3.5129 4.69289 3.51114 4.69361C3.50762 4.69507 3.50383 4.69583 3.49998 4.69583C3.49805 4.69583 3.49615 4.69564 3.49429 4.69527C3.48867 4.69416 3.48346 4.6914 3.47936 4.68729C3.47525 4.68318 3.47249 4.67797 3.47137 4.67236C3.471 4.6705 3.47081 4.66859 3.47081 4.66667C3.47081 4.66282 3.47157 4.65903 3.47303 4.65551C3.47376 4.65375 3.47466 4.65206 3.47573 4.65046C3.47787 4.64726 3.48061 4.64453 3.48378 4.64242C3.48536 4.64136 3.48704 4.64046 3.48882 4.63972C3.49237 4.63825 3.49617 4.6375 3.49998 4.6375C3.50188 4.6375 3.50379 4.63769 3.50567 4.63806C3.51133 4.63919 3.51653 4.64196 3.5206 4.64604C3.52468 4.65012 3.52746 4.65532 3.52859 4.66098C3.52896 4.66286 3.52915 4.66477 3.52915 4.66667C3.52915 4.67048 3.5284 4.67427 3.52693 4.67783C3.52619 4.6796 3.52529 4.68129 3.52423 4.68287C3.52211 4.68604 3.51938 4.68878 3.51618 4.69092ZM10.5162 4.69092C10.5146 4.69199 10.5129 4.69289 10.5111 4.69361C10.5076 4.69507 10.5038 4.69583 10.5 4.69583C10.4981 4.69583 10.4961 4.69564 10.4943 4.69527C10.4887 4.69416 10.4835 4.6914 10.4794 4.68729C10.4752 4.68318 10.4725 4.67797 10.4714 4.67236C10.471 4.6705 10.4708 4.66859 10.4708 4.66667C10.4708 4.66282 10.4716 4.65903 10.473 4.65551C10.4738 4.65375 10.4747 4.65206 10.4757 4.65046C10.4779 4.64726 10.4806 4.64453 10.4838 4.64242C10.4854 4.64136 10.487 4.64046 10.4888 4.63972C10.4924 4.63825 10.4962 4.6375 10.5 4.6375C10.5019 4.6375 10.5038 4.63769 10.5057 4.63806C10.5113 4.63919 10.5165 4.64196 10.5206 4.64604C10.5247 4.65012 10.5275 4.65532 10.5286 4.66098C10.529 4.66286 10.5291 4.66477 10.5291 4.66667C10.5291 4.67048 10.5284 4.67427 10.5269 4.67783C10.5262 4.6796 10.5253 4.68129 10.5242 4.68287C10.5221 4.68604 10.5194 4.68878 10.5162 4.69092Z" fill="#2B2B2B" stroke="#2B2B2B" stroke-width="1.225"/>
</g>
<defs>
<clipPath id="clip0_1_104">
<rect width="14" height="14" fill="white"/>
</clipPath>
</defs>
</svg>
