<svg width="12" height="12" viewBox="0 0 12 12" fill="none" xmlns="http://www.w3.org/2000/svg">
<mask id="path-1-inside-1_326_126" fill="white">
<path d="M10.6141 8.04752H7.97163C7.81692 8.04752 7.66854 8.10898 7.55915 8.21838C7.44975 8.32777 7.38829 8.47614 7.38829 8.63085C7.38829 8.78556 7.44975 8.93394 7.55915 9.04333C7.66854 9.15273 7.81692 9.21419 7.97163 9.21419H9.37163C8.72818 9.88662 7.89836 10.3513 6.98881 10.5485C6.07925 10.7457 5.1315 10.6665 4.26733 10.3209C3.40316 9.97537 2.66205 9.37933 2.13922 8.60937C1.61639 7.83941 1.33573 6.93071 1.33329 6.00002C1.33329 5.84531 1.27183 5.69694 1.16244 5.58754C1.05304 5.47815 0.904669 5.41669 0.749959 5.41669C0.59525 5.41669 0.446877 5.47815 0.33748 5.58754C0.228084 5.69694 0.166626 5.84531 0.166626 6.00002C0.16971 7.13915 0.506255 8.25246 1.13473 9.20254C1.7632 10.1526 2.6561 10.8979 3.70323 11.3464C4.75035 11.7949 5.90589 11.927 7.02722 11.7264C8.14855 11.5258 9.18661 11.0013 10.0133 10.2175V11.25C10.0133 11.4047 10.0748 11.5531 10.1841 11.6625C10.2935 11.7719 10.4419 11.8334 10.5966 11.8334C10.7513 11.8334 10.8997 11.7719 11.0091 11.6625C11.1185 11.5531 11.18 11.4047 11.18 11.25V8.62502C11.1785 8.47431 11.1188 8.33 11.0133 8.22234C10.9078 8.11469 10.7648 8.05204 10.6141 8.04752ZM7.74996 6.00002C7.74996 5.6539 7.64732 5.31556 7.45503 5.02777C7.26274 4.73999 6.98943 4.51568 6.66966 4.38323C6.34988 4.25078 5.99802 4.21612 5.65855 4.28365C5.31908 4.35117 5.00726 4.51784 4.76252 4.76258C4.51778 5.00733 4.35111 5.31915 4.28359 5.65861C4.21606 5.99808 4.25072 6.34995 4.38317 6.66972C4.51562 6.98949 4.73993 7.2628 5.02771 7.45509C5.3155 7.64739 5.65384 7.75002 5.99996 7.75002C6.46409 7.75002 6.90921 7.56565 7.2374 7.23746C7.56559 6.90927 7.74996 6.46415 7.74996 6.00002ZM5.41663 6.00002C5.41663 5.88465 5.45084 5.77187 5.51494 5.67594C5.57903 5.58001 5.67014 5.50524 5.77673 5.46109C5.88332 5.41694 6.00061 5.40539 6.11376 5.4279C6.22692 5.4504 6.33086 5.50596 6.41244 5.58754C6.49402 5.66912 6.54958 5.77306 6.57208 5.88622C6.59459 5.99937 6.58304 6.11666 6.53889 6.22325C6.49474 6.32984 6.41997 6.42095 6.32404 6.48504C6.22811 6.54914 6.11533 6.58335 5.99996 6.58335C5.84525 6.58335 5.69688 6.5219 5.58748 6.4125C5.47808 6.3031 5.41663 6.15473 5.41663 6.00002ZM5.99996 0.166687C4.50452 0.170952 3.06783 0.749387 1.98663 1.78252V0.75002C1.98663 0.595311 1.92517 0.446938 1.81577 0.337541C1.70638 0.228145 1.558 0.166687 1.40329 0.166687C1.24858 0.166687 1.10021 0.228145 0.990814 0.337541C0.881418 0.446938 0.819959 0.595311 0.819959 0.75002V3.37502C0.819959 3.52973 0.881418 3.6781 0.990814 3.7875C1.10021 3.8969 1.24858 3.95835 1.40329 3.95835H4.02829C4.183 3.95835 4.33138 3.8969 4.44077 3.7875C4.55017 3.6781 4.61163 3.52973 4.61163 3.37502C4.61163 3.22031 4.55017 3.07194 4.44077 2.96254C4.33138 2.85315 4.183 2.79169 4.02829 2.79169H2.62829C3.2714 2.11961 4.10068 1.65506 5.00969 1.45767C5.91871 1.26027 6.86597 1.33904 7.7299 1.68386C8.59382 2.02868 9.33499 2.62381 9.85826 3.39287C10.3815 4.16193 10.663 5.06983 10.6666 6.00002C10.6666 6.15473 10.7281 6.3031 10.8375 6.4125C10.9469 6.5219 11.0953 6.58335 11.25 6.58335C11.4047 6.58335 11.553 6.5219 11.6624 6.4125C11.7718 6.3031 11.8333 6.15473 11.8333 6.00002C11.8333 5.23398 11.6824 4.47543 11.3893 3.7677C11.0961 3.05997 10.6664 2.41691 10.1247 1.87523C9.58307 1.33356 8.94001 0.903876 8.23228 0.610723C7.52455 0.317571 6.766 0.166687 5.99996 0.166687Z"/>
</mask>
<path d="M10.6141 8.04752L10.6508 6.82307L10.6325 6.82252H10.6141V8.04752ZM7.97163 8.04752V6.82252V8.04752ZM7.97163 9.21419V10.4392V9.21419ZM9.37163 9.21419L10.2567 10.0611L12.2393 7.98919H9.37163V9.21419ZM1.33329 6.00002L0.108289 6.00002L0.108297 6.00323L1.33329 6.00002ZM0.166626 6.00002H-1.05838L-1.05837 6.00334L0.166626 6.00002ZM10.0133 10.2175H11.2383V7.36816L9.17049 9.32853L10.0133 10.2175ZM11.18 8.62502H12.405L12.4049 8.61332L11.18 8.62502ZM7.74996 6.00002H6.52496H7.74996ZM5.99996 7.75002V8.97502V7.75002ZM1.98663 1.78252H0.761626V4.6474L2.83292 2.66819L1.98663 1.78252ZM1.40329 0.166687V-1.05831V0.166687ZM0.819959 0.75002H-0.405041H0.819959ZM0.819959 3.37502H-0.405041H0.819959ZM2.62829 2.79169L1.74322 1.94477L-0.239387 4.01669H2.62829V2.79169ZM10.6666 6.00002L11.8916 6.00002L11.8916 5.99529L10.6666 6.00002ZM10.6141 6.82252H7.97163V9.27252H10.6141V6.82252ZM7.97163 6.82252C7.49203 6.82252 7.03207 7.01304 6.69294 7.35217L8.42535 9.08458C8.30502 9.20492 8.14181 9.27252 7.97163 9.27252V6.82252ZM6.69294 7.35217C6.35381 7.6913 6.16329 8.15125 6.16329 8.63085H8.61329C8.61329 8.80104 8.54569 8.96425 8.42535 9.08458L6.69294 7.35217ZM6.16329 8.63085C6.16329 9.11046 6.35382 9.57041 6.69294 9.90954L8.42535 8.17713C8.54569 8.29746 8.61329 8.46067 8.61329 8.63085H6.16329ZM6.69294 9.90954C7.03207 10.2487 7.49202 10.4392 7.97163 10.4392V7.98919C8.14181 7.98919 8.30502 8.05679 8.42535 8.17713L6.69294 9.90954ZM7.97163 10.4392H9.37163V7.98919H7.97163V10.4392ZM8.48656 8.36726C8.01202 8.86318 7.40003 9.20587 6.72923 9.35132L7.24838 11.7457C8.3967 11.4967 9.44434 10.9101 10.2567 10.0611L8.48656 8.36726ZM6.72923 9.35132C6.05843 9.49676 5.35947 9.43831 4.72214 9.18347L3.81252 11.4584C4.90353 11.8946 6.10007 11.9947 7.24838 11.7457L6.72923 9.35132ZM4.72214 9.18347C4.08482 8.92864 3.53825 8.48905 3.15266 7.92121L1.12578 9.29753C1.78585 10.2696 2.72151 11.0221 3.81252 11.4584L4.72214 9.18347ZM3.15266 7.92121C2.76707 7.35337 2.56009 6.6832 2.55829 5.99681L0.108297 6.00323C0.111372 7.17822 0.46571 8.32546 1.12578 9.29753L3.15266 7.92121ZM2.55829 6.00002C2.55829 5.52042 2.36777 5.06046 2.02864 4.72134L0.296233 6.45375C0.175897 6.33341 0.108293 6.1702 0.108293 6.00002L2.55829 6.00002ZM2.02864 4.72134C1.68952 4.38221 1.22956 4.19169 0.749959 4.19169V6.64169C0.579778 6.64169 0.416568 6.57408 0.296233 6.45375L2.02864 4.72134ZM0.749959 4.19169C0.270359 4.19169 -0.189598 4.38221 -0.528726 4.72134L1.20369 6.45375C1.08335 6.57408 0.92014 6.64169 0.749959 6.64169V4.19169ZM-0.528726 4.72134C-0.867854 5.06046 -1.05837 5.52042 -1.05837 6.00002L1.39163 6.00002C1.39163 6.1702 1.32402 6.33341 1.20369 6.45375L-0.528726 4.72134ZM-1.05837 6.00334C-1.05464 7.38169 -0.647419 8.72878 0.113034 9.87838L2.15642 8.52669C1.65993 7.77613 1.39406 6.89662 1.39162 5.9967L-1.05837 6.00334ZM0.113034 9.87838C0.873487 11.028 1.95389 11.9298 3.22092 12.4725L4.18554 10.2203C3.3583 9.86603 2.65292 9.27726 2.15642 8.52669L0.113034 9.87838ZM3.22092 12.4725C4.48794 13.0151 5.88614 13.175 7.24295 12.9323L6.81149 10.5205C5.92564 10.679 5.01277 10.5747 4.18554 10.2203L3.22092 12.4725ZM7.24295 12.9323C8.59976 12.6895 9.85581 12.0548 10.8561 11.1065L9.17049 9.32853C8.51741 9.94768 7.69734 10.3621 6.81149 10.5205L7.24295 12.9323ZM8.78829 10.2175V11.25H11.2383V10.2175H8.78829ZM8.78829 11.25C8.78829 11.7296 8.97882 12.1896 9.31794 12.5287L11.0504 10.7963C11.1707 10.9166 11.2383 11.0798 11.2383 11.25H8.78829ZM9.31794 12.5287C9.65707 12.8678 10.117 13.0584 10.5966 13.0584V10.6084C10.7668 10.6084 10.93 10.676 11.0504 10.7963L9.31794 12.5287ZM10.5966 13.0584C11.0762 13.0584 11.5362 12.8678 11.8753 12.5287L10.1429 10.7963C10.2632 10.676 10.4264 10.6084 10.5966 10.6084V13.0584ZM11.8753 12.5287C12.2144 12.1896 12.405 11.7296 12.405 11.25H9.95496C9.95496 11.0798 10.0226 10.9166 10.1429 10.7963L11.8753 12.5287ZM12.405 11.25V8.62502H9.95496V11.25H12.405ZM12.4049 8.61332C12.4004 8.14611 12.2153 7.69876 11.8883 7.36502L10.1383 9.07967C10.0223 8.96124 9.9566 8.80251 9.95502 8.63672L12.4049 8.61332ZM11.8883 7.36502C11.5613 7.03128 11.1178 6.83707 10.6508 6.82307L10.5774 9.27197C10.4117 9.267 10.2544 9.19809 10.1383 9.07967L11.8883 7.36502ZM8.97496 6.00002C8.97496 5.41162 8.80048 4.83644 8.47358 4.3472L6.43648 5.70835C6.49417 5.79468 6.52496 5.89619 6.52496 6.00002L8.97496 6.00002ZM8.47358 4.3472C8.14668 3.85796 7.68205 3.47665 7.13844 3.25148L6.20087 5.51498C6.2968 5.55472 6.37879 5.62201 6.43648 5.70835L8.47358 4.3472ZM7.13844 3.25148C6.59483 3.02631 5.99666 2.96739 5.41957 3.08218L5.89754 5.48511C5.99938 5.46485 6.10494 5.47525 6.20087 5.51498L7.13844 3.25148ZM5.41957 3.08218C4.84247 3.19698 4.31238 3.48032 3.89632 3.89638L5.62873 5.62879C5.70215 5.55537 5.7957 5.50537 5.89754 5.48511L5.41957 3.08218ZM3.89632 3.89638C3.48026 4.31244 3.19691 4.84253 3.08212 5.41963L5.48505 5.8976C5.5053 5.79576 5.55531 5.70221 5.62873 5.62879L3.89632 3.89638ZM3.08212 5.41963C2.96733 5.99672 3.02625 6.59489 3.25142 7.1385L5.51492 6.20093C5.47519 6.105 5.46479 5.99944 5.48505 5.8976L3.08212 5.41963ZM3.25142 7.1385C3.47659 7.68211 3.8579 8.14675 4.34714 8.47364L5.70829 6.43654C5.62195 6.37885 5.55466 6.29686 5.51492 6.20093L3.25142 7.1385ZM4.34714 8.47364C4.83637 8.80054 5.41156 8.97502 5.99996 8.97502L5.99996 6.52502C5.89612 6.52502 5.79462 6.49423 5.70829 6.43654L4.34714 8.47364ZM5.99996 8.97502C6.78898 8.97502 7.54568 8.66158 8.1036 8.10366L6.37119 6.37125C6.27273 6.46971 6.1392 6.52502 5.99996 6.52502L5.99996 8.97502ZM8.1036 8.10366C8.66152 7.54574 8.97496 6.78904 8.97496 6.00002H6.52496C6.52496 6.13926 6.46965 6.2728 6.37119 6.37125L8.1036 8.10366ZM6.64163 6.00002C6.64163 6.12693 6.60399 6.25099 6.53349 6.35651L4.49639 4.99536C4.29768 5.29274 4.19163 5.64237 4.19163 6.00002H6.64163ZM6.53349 6.35651C6.46298 6.46203 6.36276 6.54428 6.24551 6.59284L5.30794 4.32934C4.97751 4.46621 4.69509 4.69799 4.49639 4.99536L6.53349 6.35651ZM6.24551 6.59284C6.12827 6.64141 5.99925 6.65412 5.87478 6.62936L6.35275 4.22643C6.00197 4.15666 5.63837 4.19247 5.30794 4.32934L6.24551 6.59284ZM5.87478 6.62936C5.7503 6.6046 5.63597 6.54349 5.54623 6.45375L7.27864 4.72134C7.02575 4.46844 6.70353 4.29621 6.35275 4.22643L5.87478 6.62936ZM5.54623 6.45375C5.4565 6.36401 5.39538 6.24968 5.37062 6.1252L7.77355 5.64723C7.70377 5.29645 7.53154 4.97424 7.27864 4.72134L5.54623 6.45375ZM5.37062 6.1252C5.34586 6.00073 5.35857 5.87172 5.40714 5.75447L7.67064 6.69204C7.80751 6.36161 7.84332 5.99801 7.77355 5.64723L5.37062 6.1252ZM5.40714 5.75447C5.4557 5.63722 5.53795 5.537 5.64347 5.46649L7.00462 7.50359C7.30199 7.30489 7.53377 7.02247 7.67064 6.69204L5.40714 5.75447ZM5.64347 5.46649C5.74899 5.39599 5.87305 5.35835 5.99996 5.35835V7.80835C6.35761 7.80835 6.70724 7.7023 7.00462 7.50359L5.64347 5.46649ZM5.99996 5.35835C6.17014 5.35835 6.33335 5.42596 6.45369 5.54629L4.72127 7.27871C5.0604 7.61783 5.52036 7.80835 5.99996 7.80835V5.35835ZM6.45369 5.54629C6.57402 5.66663 6.64163 5.82984 6.64163 6.00002H4.19163C4.19163 6.47962 4.38215 6.93958 4.72127 7.27871L6.45369 5.54629ZM5.99647 -1.05831C4.18698 -1.05315 2.44859 -0.353241 1.14033 0.89685L2.83292 2.66819C3.68707 1.85201 4.82205 1.39505 6.00345 1.39168L5.99647 -1.05831ZM3.21163 1.78252V0.75002H0.761626V1.78252H3.21163ZM3.21163 0.75002C3.21163 0.270421 3.02111 -0.189535 2.68198 -0.528664L0.949566 1.20375C0.829229 1.08341 0.761626 0.9202 0.761626 0.75002H3.21163ZM2.68198 -0.528664C2.34285 -0.867793 1.88289 -1.05831 1.40329 -1.05831V1.39169C1.23311 1.39169 1.0699 1.32408 0.949566 1.20375L2.68198 -0.528664ZM1.40329 -1.05831C0.923693 -1.05831 0.463736 -0.867793 0.124608 -0.528664L1.85702 1.20375C1.73668 1.32408 1.57347 1.39169 1.40329 1.39169V-1.05831ZM0.124608 -0.528664C-0.21452 -0.189537 -0.405041 0.27042 -0.405041 0.75002H2.04496C2.04496 0.920201 1.97736 1.08341 1.85702 1.20375L0.124608 -0.528664ZM-0.405041 0.75002V3.37502H2.04496V0.75002H-0.405041ZM-0.405041 3.37502C-0.405041 3.85462 -0.21452 4.31458 0.124608 4.65371L1.85702 2.92129C1.97735 3.04163 2.04496 3.20484 2.04496 3.37502H-0.405041ZM0.124608 4.65371C0.463736 4.99283 0.923692 5.18335 1.40329 5.18335V2.73335C1.57347 2.73335 1.73668 2.80096 1.85702 2.92129L0.124608 4.65371ZM1.40329 5.18335H4.02829V2.73335H1.40329V5.18335ZM4.02829 5.18335C4.50789 5.18335 4.96785 4.99283 5.30698 4.65371L3.57457 2.92129C3.6949 2.80096 3.85811 2.73335 4.02829 2.73335V5.18335ZM5.30698 4.65371C5.64611 4.31458 5.83663 3.85462 5.83663 3.37502H3.38663C3.38663 3.20484 3.45423 3.04163 3.57457 2.92129L5.30698 4.65371ZM5.83663 3.37502C5.83663 2.89542 5.64611 2.43546 5.30698 2.09634L3.57457 3.82875C3.45423 3.70841 3.38663 3.5452 3.38663 3.37502H5.83663ZM5.30698 2.09634C4.96785 1.75721 4.50789 1.56669 4.02829 1.56669V4.01669C3.85811 4.01669 3.6949 3.94908 3.57457 3.82875L5.30698 2.09634ZM4.02829 1.56669H2.62829V4.01669H4.02829V1.56669ZM3.51336 3.63861C3.98765 3.14295 4.59925 2.80035 5.26965 2.65477L4.74974 0.260567C3.60211 0.509778 2.55514 1.09627 1.74322 1.94477L3.51336 3.63861ZM5.26965 2.65477C5.94004 2.50919 6.63865 2.56728 7.2758 2.82158L8.184 0.546132C7.09329 0.110798 5.89737 0.0113551 4.74974 0.260567L5.26965 2.65477ZM7.2758 2.82158C7.91294 3.07589 8.45955 3.5148 8.84547 4.08198L10.8711 2.70376C10.2104 1.73282 9.2747 0.981465 8.184 0.546132L7.2758 2.82158ZM8.84547 4.08198C9.23138 4.64916 9.43899 5.31874 9.44164 6.00475L11.8916 5.99529C11.8871 4.82092 11.5317 3.6747 10.8711 2.70376L8.84547 4.08198ZM9.44163 6.00002C9.44163 6.47962 9.63214 6.93958 9.97127 7.27871L11.7037 5.54629C11.824 5.66663 11.8916 5.82984 11.8916 6.00002H9.44163ZM9.97127 7.27871C10.3104 7.61783 10.7704 7.80835 11.25 7.80835V5.35835C11.4201 5.35835 11.5834 5.42596 11.7037 5.54629L9.97127 7.27871ZM11.25 7.80835C11.7296 7.80835 12.1895 7.61783 12.5286 7.27871L10.7962 5.54629C10.9166 5.42596 11.0798 5.35835 11.25 5.35835V7.80835ZM12.5286 7.27871C12.8678 6.93958 13.0583 6.47962 13.0583 6.00002H10.6083C10.6083 5.82984 10.6759 5.66663 10.7962 5.54629L12.5286 7.27871ZM13.0583 6.00002C13.0583 5.07311 12.8757 4.15527 12.521 3.29891L10.2575 4.23649C10.4891 4.7956 10.6083 5.39485 10.6083 6.00002H13.0583ZM12.521 3.29891C12.1663 2.44256 11.6464 1.66445 10.991 1.00903L9.25854 2.74144C9.68647 3.16936 10.0259 3.67738 10.2575 4.23649L12.521 3.29891ZM10.991 1.00903C10.3355 0.353598 9.55742 -0.166315 8.70107 -0.521029L7.76349 1.74248C8.3226 1.97407 8.83062 2.31351 9.25854 2.74144L10.991 1.00903ZM8.70107 -0.521029C7.84471 -0.875744 6.92687 -1.05831 5.99996 -1.05831L5.99996 1.39169C6.60513 1.39169 7.20438 1.51089 7.76349 1.74248L8.70107 -0.521029Z" fill="white" mask="url(#path-1-inside-1_326_126)"/>
</svg>
